<svg id="Log_App_Icon" data-name="Log App Icon" xmlns="http://www.w3.org/2000/svg" viewBox="0 0 1000 1000" class="menu--nav-item"><defs></defs><g id="Bark_Group" data-name="Bark Group" fill="#4d3d36"><circle id="Foreground" cx="604.4" cy="395.6" r="185.6"></circle><path id="Rectangle" transform="rotate(45 499.37 500.346)" d="M313.97 352.01h371.2V647.3h-371.2z"></path><circle id="Background_Circle" data-name="Background Circle" cx="395.6" cy="604.4" r="185.6"></circle><path id="Branch_Stump" data-name="Branch Stump" d="M503.25 291.58l-53.58-64.45q-.33-.39-.69-.78a40.29 40.29 0 00-46-9.15L370 231.91l-.1.05a40.52 40.52 0 00-20.42 52.47l29.68 70.37a40.24 40.24 0 0050.9 22l57.11-20.18.23-.09a40.3 40.3 0 0015.82-64.94z" transform="translate(.43 .35)"></path></g><g id="Clock"><circle cx="395.6" cy="604.4" r="122.68" fill="#f7f4e5"></circle><path id="Short" d="M430.62 660.13a20.6 20.6 0 01-14.58-6l-35.45-35.45a20.62 20.62 0 0129.16-29.17l35.45 35.45a20.63 20.63 0 01-14.58 35.21z" transform="translate(.43 .35)" fill="#4d3d36"></path><path id="Long" d="M395.17 624.68a20.63 20.63 0 01-20.62-20.63v-85.36a20.62 20.62 0 1141.24 0v85.36a20.63 20.63 0 01-20.62 20.63z" transform="translate(.43 .35)" fill="#4d3d36"></path></g><g id="Highlights_Group" data-name="Highlights Group" fill="#f8cc61"><path id="Long-2" data-name="Long" d="M611.24 562.92a20.62 20.62 0 01-14.58-35.2l62.53-62.54a20.63 20.63 0 1129.17 29.17l-62.53 62.53a20.56 20.56 0 01-14.59 6.04z" transform="translate(.43 .35)"></path><path id="Medium" d="M611.79 458.39a20.62 20.62 0 01-14.58-35.2l26-26a20.62 20.62 0 1129.17 29.16l-26 26a20.56 20.56 0 01-14.59 6.04z" transform="translate(.43 .35)"></path><circle id="Short-2" data-name="Short" cx="680.29" cy="370.05" r="20.62"></circle></g></svg>